<?xml version="1.0" standalone="no"?>
<!DOCTYPE svg PUBLIC "-//W3C//DTD SVG 20010904//EN"
 "http://www.w3.org/TR/2001/REC-SVG-20010904/DTD/svg10.dtd">
<svg version="1.0" xmlns="http://www.w3.org/2000/svg"
 width="700.000000pt" height="700.000000pt" viewBox="0 0 700.000000 700.000000"
 preserveAspectRatio="xMidYMid meet">
<metadata>
Created by potrace 1.14, written by Peter Selinger 2001-2017
</metadata>
<g transform="translate(0.000000,700.000000) scale(0.100000,-0.100000)"
fill="#000000" stroke="none">
<path d="M2910 6297 c-3 -3 -41 -7 -85 -11 -106 -8 -151 -14 -265 -37 -52 -11
-106 -22 -120 -25 -63 -12 -271 -78 -368 -116 -107 -42 -366 -169 -419 -206
-15 -11 -68 -46 -117 -77 -263 -172 -538 -440 -733 -715 -204 -288 -351 -614
-434 -960 -28 -116 -37 -165 -54 -292 -26 -182 -26 -578 -1 -718 3 -14 7 -43
11 -65 66 -458 267 -924 559 -1295 80 -102 85 -107 201 -228 273 -283 612
-511 970 -652 11 -4 36 -15 55 -23 30 -12 103 -36 235 -77 103 -31 347 -76
475 -88 107 -9 420 -9 525 0 386 34 802 163 1120 348 22 13 49 28 61 34 26 14
240 159 275 187 l26 21 59 -27 c78 -36 212 -79 299 -96 93 -18 377 -18 470 0
149 29 334 103 464 185 140 89 315 267 389 396 14 25 31 52 37 60 23 30 85
181 110 266 27 92 30 108 44 206 9 64 7 311 -3 338 -3 8 -7 31 -10 50 -21 143
-129 393 -228 525 -120 161 -275 291 -455 382 l-113 57 -1 41 c-1 45 -3 65
-13 145 -25 200 -65 378 -126 561 -43 126 -145 365 -161 375 -5 3 -9 11 -9 19
0 15 -114 208 -175 295 -304 437 -720 780 -1193 987 -247 107 -467 167 -807
218 -49 7 -489 18 -495 12z m375 -471 c307 -24 655 -126 898 -263 33 -18 61
-33 64 -33 3 0 55 -33 116 -74 452 -298 780 -721 946 -1221 46 -138 93 -342
105 -457 l5 -48 -52 -1 c-160 -3 -322 -41 -482 -114 -356 -162 -633 -500 -720
-878 -27 -116 -30 -147 -29 -302 0 -174 17 -275 71 -425 38 -108 110 -240 176
-328 23 -30 48 -62 55 -72 11 -15 4 -22 -55 -60 -116 -75 -288 -167 -393 -210
-30 -12 -64 -26 -75 -31 -39 -17 -234 -77 -287 -88 -152 -32 -169 -35 -278
-48 -80 -10 -423 -11 -505 -1 -334 38 -660 147 -932 310 -161 97 -180 111
-192 136 -7 15 -10 149 -7 420 2 218 4 399 5 402 1 3 12 -17 25 -45 135 -289
527 -650 831 -764 62 -24 75 -27 134 -37 148 -25 328 12 505 104 264 136 556
429 729 732 l26 45 -56 68 -55 69 -112 -115 c-127 -131 -190 -184 -297 -254
-209 -136 -396 -151 -602 -47 -277 139 -517 393 -582 616 -21 73 -14 87 97
200 168 169 388 307 536 335 21 4 82 7 137 7 78 0 116 -5 173 -23 40 -13 75
-22 78 -19 7 8 -25 138 -49 193 -47 113 -135 211 -230 258 -194 97 -469 70
-708 -69 -170 -100 -380 -305 -490 -479 -22 -36 -43 -65 -45 -65 -2 0 -2 10 1
23 3 12 7 33 9 47 13 68 17 86 22 100 18 52 162 774 179 900 6 43 8 55 19 125
20 124 26 357 12 449 -17 118 -79 242 -149 300 -83 70 -212 109 -352 105 -270
-7 -481 -143 -638 -411 -37 -62 -87 -167 -87 -181 0 -2 25 5 56 15 71 24 150
29 190 12 85 -36 164 -161 187 -299 15 -92 11 -304 -8 -404 -1 -9 -6 -52 -10
-96 -4 -44 -8 -91 -10 -105 -4 -30 -13 -99 -20 -160 -10 -94 -32 -285 -39
-345 -2 -16 -7 -59 -11 -95 -4 -36 -8 -76 -10 -90 -2 -14 -6 -54 -10 -90 -4
-36 -8 -76 -10 -90 -2 -14 -7 -61 -10 -104 -4 -44 -8 -87 -10 -97 -2 -9 -7
-61 -10 -115 -7 -86 -11 -136 -14 -154 -3 -15 -80 152 -142 305 -16 40 -48
142 -64 205 -18 70 -20 77 -35 160 -6 30 -12 66 -15 79 -4 21 -8 52 -20 166
-7 60 -7 312 0 380 27 278 90 534 181 733 45 99 45 103 -13 96 -48 -5 -131
-39 -297 -121 -49 -24 -90 -42 -92 -41 -5 6 126 333 165 413 35 70 103 184
131 218 141 172 286 271 465 318 56 15 118 22 207 25 l127 3 73 54 c350 257
791 419 1208 444 52 3 96 6 97 7 4 4 190 -2 268 -8z m2269 -2571 c199 -32 397
-152 522 -318 245 -326 215 -779 -71 -1071 -91 -92 -240 -181 -360 -215 -121
-35 -322 -36 -439 -2 -375 105 -620 439 -608 826 12 380 302 713 678 778 79
13 199 14 278 2z"/>
</g>
</svg>
